<svg xmlns="http://www.w3.org/2000/svg" xmlns:xlink="http://www.w3.org/1999/xlink" viewBox="0 0 100 125" version="1.1" x="0px" y="0px"><title>magn_gls-2</title><desc>Created with Sketch.</desc><g stroke="rgb(177,19,34)" stroke-width="1" fill="rgb(177,19,34)" fill-rule="evenodd"><path d="M33.815785,21.3501618 C33.7456864,21.813422 33.1920092,22.0135585 32.8374526,21.7057343 C29.2532816,18.590919 25.6264419,15.3003493 23.774417,10.8363903 C23.4218923,9.98911174 23.1547049,9.08392569 23.1994054,8.16756451 C23.282711,6.48723036 24.6277911,5.05579698 26.3284436,5.00195314 C27.7131446,4.95826851 29.0196197,5.65315881 30.1107194,6.50653287 C32.3132371,8.22953572 34.0372559,10.7723872 34.6681432,13.5123275 C34.9261872,14.6328889 34.8936777,15.7117975 34.7392577,16.7805469 C34.5188027,18.2993495 34.0504629,19.794786 33.815785,21.3501618 M73.4326595,91.4690631 C75.7062918,84.5709562 67.9202695,78.4622203 63.9642712,73.9769269 C63.5325046,73.4882687 63.0712762,72.8482381 63.3140815,72.2437648 C63.4928836,71.8008231 63.9845896,71.5793522 64.4427702,71.4472824 C69.2978591,70.041247 78.7855499,76.4832052 81.9582727,70.3246891 C82.8644747,68.5651131 81.9074766,66.9924666 80.0828816,66.4916173 C77.9403032,65.9033988 72.3557827,64.9342097 74.371371,61.2718127 C76.3178766,57.7323422 79.3615773,63.1248535 81.6270823,60.763852 C82.1655207,60.2030633 82.4794404,59.469568 82.9142548,58.8244578 C85.2722086,55.3246083 90.5478889,56.7956626 92.7697092,53.4187396 C94.9244787,50.1464565 91.5292691,46.7796926 88.4997912,46.0441655 C86.6508141,45.5951282 84.6342099,46.0045445 82.8421244,45.3939757 C81.7662635,45.028244 80.7930107,44.0234976 80.9271124,42.8948089 C81.0713732,41.6807827 82.4134055,40.7420712 82.2274919,39.5331246 C82.0425942,38.3282418 80.5105846,37.897491 79.2935106,37.9716533 C78.0764367,38.0468315 76.7161178,38.3180825 75.7438809,37.5805235 C74.7472619,36.8246779 74.6751315,35.2662544 75.2785889,34.171091 C75.8820462,33.0749117 76.985337,32.3546234 78.0876118,31.7633571 C79.4977108,31.0064956 81.1658539,30.1490578 81.4279617,28.5703158 C81.9653841,25.3244467 77.477043,24.8947119 75.3852606,25.5977295 C72.7387851,26.4866608 67.9253491,29.5039477 65.7929299,26.0040981 C64.4092448,23.7335136 66.5355685,20.8452488 66.1728845,18.2109644 C65.7817548,15.3633364 61.8663933,13.7348143 59.5704108,15.4649286 C56.2686659,17.9519044 56.3824491,26.4287533 50.3102864,24.1784872 C48.7843723,23.6136349 47.6922567,22.3813221 46.1805655,21.8083424 C44.5418841,21.1876143 42.5598213,21.1855825 41.1680089,22.2502682 C38.9207905,23.9692074 39.083338,27.5726809 37.0779089,29.5669348 C34.9698718,31.6637968 31.4527516,31.1284061 28.6691268,30.0830229 C23.4879271,28.1344855 18.7354464,24.9231577 13.2890913,23.9316183 C10.7452239,23.4683581 7.5836762,23.8127555 6.40114358,26.1117858 C5.58535862,27.6976393 6.08722384,29.7264345 7.24537434,31.0826897 C8.40352484,32.4389449 10.09605,33.2232363 11.8017822,33.7433881 C14.3060287,34.5063451 16.9575838,34.7836917 19.5654543,34.5551093 C20.6463947,34.4596127 21.7486696,34.2808105 22.8052279,34.5297113 C23.8617863,34.7786121 24.8807555,35.5974448 24.95187,36.6804171 C24.9823477,37.1385977 24.8421505,37.5967783 24.8817714,38.0549589 C24.990475,39.2903194 26.3193003,40.0339739 27.5333265,40.2869384 C28.7473527,40.5399028 30.0741462,40.551078 31.0880358,41.2652708 C32.9339652,42.5656503 32.6190295,45.6428765 30.956982,47.1708224 C29.2939185,48.6997843 26.8445318,48.9984652 24.589186,48.8796024 C22.3348563,48.7597236 20.0713832,48.3005271 17.83534,48.6134309 C15.5992968,48.9263348 13.2951868,50.2622715 12.7323663,52.4495505 C11.8962629,55.6984674 15.5251345,58.6771492 18.8786913,58.5725093 C21.8177522,58.4800605 24.4540685,56.8525542 27.2336297,55.8935243 C28.5451843,55.4414393 29.9705222,55.134631 31.3166182,55.4729328 C32.6627141,55.8112347 33.8858836,56.9500827 33.9316001,58.3378315 C33.9905235,60.1441399 32.2411067,61.3927074 30.8340555,62.5285076 C29.4270042,63.6643078 28.1235769,65.6819279 29.1913104,67.1407912 C29.6301885,67.7412008 30.3921296,68.0723912 30.7466862,68.7266446 C31.3003634,69.7466298 30.6024254,71.0205954 29.7053667,71.7561225 C28.8093239,72.4906338 27.6897784,72.9742124 26.9725379,73.885494 C25.4852288,75.7730761 26.5356916,78.8472545 28.652872,79.9840707 C31.5137069,81.519128 34.9139962,80.1669365 37.1916921,78.2285583 C38.8994562,76.7768065 40.2963482,74.9877688 41.9990326,73.5289055 C42.7152573,72.9152889 43.5229149,72.345357 44.4545149,72.1960165 C46.4579121,71.8760013 47.222901,73.7960929 48.0772909,75.1889212 C48.6787165,76.1692855 49.8267077,77.0886944 50.8852979,76.6366094 C51.7894681,75.7954264 51.4460866,74.3020218 51.8372164,73.1316802 C52.1978685,72.0507397 53.2818567,71.2552732 54.4227366,71.2329229 C56.1274528,71.2014294 57.3049058,72.7415664 57.1545495,74.3924388 C57.0326389,75.7273596 56.2259972,76.8966853 55.3624639,77.922766 C53.9452535,79.6061479 52.0150026,81.5028733 52.9303479,83.8974003 C53.7258144,85.9769916 56.2717137,87.1107599 58.2070441,87.8117458 C61.2273787,88.9058932 62.7949456,90.6441349 64.9862882,92.8436049 C66.2358717,94.098268 67.8918237,95.1832721 69.6503838,94.9739923 C71.4526285,94.7596329 72.8647594,93.1930819 73.4326595,91.4690631" fill="rgb(177,19,34);"/></g></svg>