<?xml version="1.0" encoding="iso-8859-1"?>
<!-- Generator: Adobe Illustrator 19.1.0, SVG Export Plug-In . SVG Version: 6.00 Build 0)  -->
<svg version="1.1" xmlns="http://www.w3.org/2000/svg" xmlns:xlink="http://www.w3.org/1999/xlink" x="0px" y="0px"
	 viewBox="0 0 96 96"  style="enable-background:new 0 0 96 96;" xml:space="preserve">
<g id="_x32_3">
	<rect x="-47" y="-47" style="fill:transparent;" width="190" height="190"/>
	<path style="fill:#EF4136;" d="M27,42.7c-0.6-0.5-1.3-0.9-2-1.3c-4.3-2.3-10.8-3.5-15.8-3.4L8,39.9l-0.8,1.3c-0.4,0.7-1.3,1-2,0.5
		c-0.7-0.5-1-1.3-0.5-2l0.8-1.3l1.1-2c-0.3-0.7-0.7-1.4-1.1-2.1c-0.7-1-1.5-2.1-2.5-3.2V36v37.5C3,74.3,2.3,75,1.5,75S0,74.3,0,73.5
		V36v-7.9v-3.9v-4.6v-3.5V1.5C0,0.7,0.7,0,1.5,0H3H2.2h3.3h17.4h11.2h17.6H55h11.5h3.4H72h1.5C74.3,0,75,0.7,75,1.5S74.3,3,73.5,3
		H72h-2.3c-0.5,0.6-0.9,1.3-1.3,2c-2.3,4.3-3.5,10.8-3.4,15.8l1.9,1.1l1.3,0.8c0.7,0.4,1,1.3,0.5,2c-0.4,0.7-1.3,1-2,0.5l-1.3-0.8
		l-2-1.1c-0.7,0.3-1.4,0.7-2.1,1.1c-4.1,2.6-8.4,7.6-10.9,12l1.1,1.9l0.8,1.3c0.4,0.7,0.2,1.6-0.5,2c-0.7,0.4-1.6,0.2-2-0.5L49,39.9
		l-1.1-2c-0.8-0.1-1.6-0.1-2.4-0.1c-4.9,0.1-11.1,2.4-15.4,5V45v1.5V60v0.1c2.6,0.2,4.1,1.2,4.9,2.4l5.7-3.4l1.4-9.8
		c0.1-0.8,0.9-1.4,1.7-1.3c0.8,0.1,1.4,0.9,1.3,1.7l-1.5,10.5c-0.1,0.5-0.3,0.8-0.7,1.1L36,65.4c0,0.1,0,0.2,0,0.3l8-1.1l1.2-3.6
		c0.3-0.8,1.1-1.2,1.9-0.9c0.8,0.3,1.2,1.1,0.9,1.9l-1.5,4.5c-0.2,0.6-0.6,0.9-1.2,1L36,68.8V69v0.2l9.2,1.3c0.5,0.1,1,0.4,1.2,0.9
		l4.5,10.5c0.3,0.8,0,1.6-0.8,2c-0.8,0.3-1.6,0-2-0.8L44,73.4l-8.4-1.2l-0.1,0.2l0.1,0.1l7.5,7.5c0.4,0.4,0.5,1,0.4,1.5L38.9,95
		c-0.3,0.8-1.1,1.2-1.9,0.9c-0.8-0.3-1.2-1.1-0.9-1.9l4.2-12.6L34,75.1c-0.3,0.4-0.7,0.8-1.1,1.2l0.1-0.1c0,0.1,0,0.2,0,0.2
		c0,2.5-2,4.5-4.5,4.5C26,80.9,24,79,24,76.5c0-0.1,0-0.2,0-0.2l0.1,0.1c-0.4-0.4-0.8-0.8-1.1-1.2l-6.3,6.3L20.9,94
		c0.3,0.8-0.2,1.6-0.9,1.9c-0.8,0.3-1.6-0.2-1.9-0.9l-4.5-13.5c-0.2-0.6-0.1-1.1,0.4-1.5l7.5-7.5l0.1-0.1l-0.1-0.2L13,73.4l-4.2,9.7
		c-0.3,0.8-1.2,1.1-2,0.8c-0.8-0.3-1.1-1.2-0.8-2l4.5-10.5c0.2-0.5,0.6-0.8,1.2-0.9l9.2-1.3V69v-0.2l-9.2-1.3c-0.6-0.1-1-0.5-1.2-1
		L9.1,62c-0.3-0.8,0.2-1.6,0.9-1.9c0.8-0.3,1.6,0.2,1.9,0.9l1.2,3.6l8,1.1c0-0.1,0-0.2,0-0.3l-6.9-4.1c-0.4-0.2-0.6-0.6-0.7-1.1
		L12,49.7c-0.1-0.8,0.5-1.6,1.3-1.7c0.8-0.1,1.6,0.5,1.7,1.3l1.4,9.8l5.7,3.4c0.8-1.3,2.3-2.2,4.9-2.4V60V46.5V45V42.7L27,42.7z
		 M3,26.8c2,1.9,3.8,3.9,5,6c0.1,0.2,0.2,0.4,0.4,0.6l5.7-9.8c-1.6-2.8-5-5.7-7.7-7.5L3,18V26.8L3,26.8z M3,14.5l1.9-1.1
		C4.9,10.9,4,7.8,3,5.2V14.5L3,14.5z M5.4,3c1.1,2.7,2.1,5.8,2.5,8.7l15-8.7H5.4L5.4,3z M27,7.101l-8.8,15.2
		c2.9,0.3,6.1,1.1,8.8,2.2V7.101L27,7.101z M27,27.8c-2.8-1.6-7.2-2.4-10.4-2.7L10.9,35c5.2,0.2,11.3,1.5,15.5,3.8
		c0.2,0.1,0.4,0.2,0.6,0.3V33V27.8L27,27.8z M30,39.4c4.6-2.5,10.5-4.4,15.3-4.5c0.2,0,0.5,0,0.7,0l-5.7-9.8
		c-3.2,0-7.4,1.5-10.4,2.9v5v6.4H30z M30,24.6c2.7-1.1,5.8-2.1,8.7-2.5l-8.7-15V24.6L30,24.6z M34.1,3l15.2,8.8
		c0.3-2.9,1.1-6.1,2.2-8.8H34.1L34.1,3z M54.8,3c-1.6,2.8-2.4,7.2-2.7,10.4l9.9,5.7c0.2-5.2,1.5-11.3,3.8-15.5
		c0.1-0.2,0.2-0.4,0.3-0.6H54.8L54.8,3z M15.7,20.7l8.7-15.1L9.2,14.4C11.5,16.101,14,18.4,15.7,20.7L15.7,20.7z M32.6,5.601
		l8.8,15.2c1.7-2.3,4-4.8,6.3-6.5L32.6,5.601L32.6,5.601z M50.6,16c-2.8,1.6-5.7,5-7.5,7.7l5.7,9.9c2.8-4.4,6.9-9,11-11.6
		c0.2-0.1,0.4-0.2,0.6-0.4L50.6,16z"/>
	<path style="fill: rgba(37,25,24,1);" d="M27,42.7c-0.6-0.5-1.3-0.9-2-1.3c-4.3-2.3-10.8-3.5-15.8-3.4L8,39.9l-0.8,1.3c-0.4,0.7-1.3,1-2,0.5
		c-0.7-0.5-1-1.3-0.5-2l0.8-1.3l1.1-2c-0.3-0.7-0.7-1.4-1.1-2.1c-0.7-1-1.5-2.1-2.5-3.2V36v37.5C3,74.3,2.3,75,1.5,75S0,74.3,0,73.5
		V36v-7.9v-3.9v-4.6v-3.5V1.5C0,0.7,0.7,0,1.5,0H3H2.2h3.3h17.4h11.2h17.6H55h11.5h3.4H72h1.5C74.3,0,75,0.7,75,1.5S74.3,3,73.5,3
		H72h-2.3c-0.5,0.6-0.9,1.3-1.3,2c-2.3,4.3-3.5,10.8-3.4,15.8l1.9,1.1l1.3,0.8c0.7,0.4,1,1.3,0.5,2c-0.4,0.7-1.3,1-2,0.5l-1.3-0.8
		l-2-1.1c-0.7,0.3-1.4,0.7-2.1,1.1c-4.1,2.6-8.4,7.6-10.9,12l1.1,1.9l0.8,1.3c0.4,0.7,0.2,1.6-0.5,2c-0.7,0.4-1.6,0.2-2-0.5L49,39.9
		l-1.1-2c-0.8-0.1-1.6-0.1-2.4-0.1c-4.9,0.1-11.1,2.4-15.4,5V45v1.5V60v0.1c2.6,0.2,4.1,1.2,4.9,2.4l5.7-3.4l1.4-9.8
		c0.1-0.8,0.9-1.4,1.7-1.3c0.8,0.1,1.4,0.9,1.3,1.7l-1.5,10.5c-0.1,0.5-0.3,0.8-0.7,1.1L36,65.4c0,0.1,0,0.2,0,0.3l8-1.1l1.2-3.6
		c0.3-0.8,1.1-1.2,1.9-0.9c0.8,0.3,1.2,1.1,0.9,1.9l-1.5,4.5c-0.2,0.6-0.6,0.9-1.2,1L36,68.8V69v0.2l9.2,1.3c0.5,0.1,1,0.4,1.2,0.9
		l4.5,10.5c0.3,0.8,0,1.6-0.8,2c-0.8,0.3-1.6,0-2-0.8L44,73.4l-8.4-1.2l-0.1,0.2l0.1,0.1l7.5,7.5c0.4,0.4,0.5,1,0.4,1.5L38.9,95
		c-0.3,0.8-1.1,1.2-1.9,0.9c-0.8-0.3-1.2-1.1-0.9-1.9l4.2-12.6L34,75.1c-0.3,0.4-0.7,0.8-1.1,1.2l0.1-0.1c0,0.1,0,0.2,0,0.2
		c0,2.5-2,4.5-4.5,4.5C26,80.9,24,79,24,76.5c0-0.1,0-0.2,0-0.2l0.1,0.1c-0.4-0.4-0.8-0.8-1.1-1.2l-6.3,6.3L20.9,94
		c0.3,0.8-0.2,1.6-0.9,1.9c-0.8,0.3-1.6-0.2-1.9-0.9l-4.5-13.5c-0.2-0.6-0.1-1.1,0.4-1.5l7.5-7.5l0.1-0.1l-0.1-0.2L13,73.4l-4.2,9.7
		c-0.3,0.8-1.2,1.1-2,0.8c-0.8-0.3-1.1-1.2-0.8-2l4.5-10.5c0.2-0.5,0.6-0.8,1.2-0.9l9.2-1.3V69v-0.2l-9.2-1.3c-0.6-0.1-1-0.5-1.2-1
		L9.1,62c-0.3-0.8,0.2-1.6,0.9-1.9c0.8-0.3,1.6,0.2,1.9,0.9l1.2,3.6l8,1.1c0-0.1,0-0.2,0-0.3l-6.9-4.1c-0.4-0.2-0.6-0.6-0.7-1.1
		L12,49.7c-0.1-0.8,0.5-1.6,1.3-1.7c0.8-0.1,1.6,0.5,1.7,1.3l1.4,9.8l5.7,3.4c0.8-1.3,2.3-2.2,4.9-2.4V60V46.5V45V42.7L27,42.7z
		 M28.5,75c2.9,0,4.5-3.1,4.5-6c0-1.2,0.1-3.7-0.6-4.8c-0.7-1.1-2.8-1.2-3.9-1.2c-1.1,0-3.2,0.1-3.9,1.2C23.9,65.3,24,67.8,24,69
		C24,71.9,25.6,75,28.5,75L28.5,75z M3,26.8c2,1.9,3.8,3.9,5,6c0.1,0.2,0.2,0.4,0.4,0.6l5.7-9.8c-1.6-2.8-5-5.7-7.7-7.5L3,18V26.8
		L3,26.8z M3,14.5l1.9-1.1C4.9,10.9,4,7.8,3,5.2V14.5L3,14.5z M5.4,3c1.1,2.7,2.1,5.8,2.5,8.7l15-8.7H5.4L5.4,3z M27,7.1l-8.8,15.2
		c2.9,0.3,6.1,1.1,8.8,2.2V7.1L27,7.1z M27,27.8c-2.8-1.6-7.2-2.4-10.4-2.7L10.9,35c5.2,0.2,11.3,1.5,15.5,3.8
		c0.2,0.1,0.4,0.2,0.6,0.3V33V27.8L27,27.8z M30,39.4c4.6-2.5,10.5-4.4,15.3-4.5c0.2,0,0.5,0,0.7,0l-5.7-9.8
		c-3.2,0-7.4,1.5-10.4,2.9v5v6.4H30z M30,24.6c2.7-1.1,5.8-2.1,8.7-2.5L30,7.1V24.6L30,24.6z M34.1,3l15.2,8.8
		c0.3-2.9,1.1-6.1,2.2-8.8H34.1L34.1,3z M54.8,3c-1.6,2.8-2.4,7.2-2.7,10.4l9.9,5.7c0.2-5.2,1.5-11.3,3.8-15.5
		c0.1-0.2,0.2-0.4,0.3-0.6H54.8L54.8,3z M15.7,20.7l8.7-15.1L9.2,14.4C11.5,16.1,14,18.4,15.7,20.7L15.7,20.7z M32.6,5.601l8.8,15.2
		c1.7-2.3,4-4.8,6.3-6.5L32.6,5.601L32.6,5.601z M50.6,16c-2.8,1.6-5.7,5-7.5,7.7l5.7,9.9c2.8-4.4,6.9-9,11-11.6
		c0.2-0.1,0.4-0.2,0.6-0.4L50.6,16z"/>
</g>
<g id="Layer_1">
</g>
</svg>
